<?xml version="1.0" encoding="UTF-8"?>
<svg id="Layer_2" data-name="Layer 2" xmlns="http://www.w3.org/2000/svg" viewBox="0 0 960 960">
  <defs>
    <style>
      .cls-1 {
        fill: #000;
      }

      .cls-1, .cls-2 {
        stroke-width: 0px;
      }

      .cls-2 {
        fill: #fff;
      }
    </style>
  </defs>
  <g id="Layer_1-2" data-name="Layer 1">
    <g>
      <path class="cls-2" d="M960,960H0V0c320,0,640,0,960,0v960ZM905.53,58.31c-1.95-.27-2.91-.44-3.88-.52-33.27-2.64-66.26-.54-98.86,6.43-183.56,39.26-308.7,216.74-272.21,408.46,23.21,121.94,94.64,207.83,207.66,259.01,3.93,1.78,4.92,3.79,4.91,7.72-.11,43.33-.03,86.65-.13,129.98,0,4.47-.47,9-1.4,13.36-.4,1.89-2.18,4.01-3.92,4.98-4,2.24-8.36,3.84-13.4,6.07,4.63,2.57,8.85,4.49,12.55,7.13,1.84,1.32,3.44,3.81,3.92,6.03.91,4.27.95,8.73,1.35,13.11.57.38,1.15.75,1.72,1.13,3.03-3.49,5.84-7.22,9.21-10.34,1.38-1.29,4.04-1.95,5.99-1.72,4.65.53,9.23,1.76,14.45,2.83-2.04-4.29-3.48-8.02-5.51-11.42-2.15-3.61-1.97-6.6.48-9.99,2.28-3.16,4-6.72,6.42-10.88-4.76.54-8.54.98-12.31,1.41-7.61.86-14.34-5.37-14.35-13.27-.04-32.99-.08-65.98-.12-98.97-.01-10.77,0-21.54,0-32.97,25.29,9.69,50.56,16.73,76.69,20.1,32.17,4.15,70.33,4.82,79.5,1.73-55.78-6.46-106.63-24.37-153.02-54.49-46.62-30.28-84.07-69.42-112.29-117.32-26.34-44.72-52.45-131.67-46.43-154.05,11.41,19.94,38.87,32.91,68.29,17.32,6.49,7.12,12.56,15.88,26.16,10.38-6.44-5.74-12.45-11.1-18.42-16.43,22.73-24,17.86-55.15-.25-71.83-9.78-9.01-21.37-13.56-34.56-13.15-17.84.56-31.55,8.92-41.6,23.78,5.21-70.82,29.24-134.4,73.13-189.91,61.19-77.37,141.52-121.22,240.25-133.71ZM365.25,360.37c26.59-1.81,47.37,8.43,63.08,30.25,4.76-3.34,9.3-6.52,13.99-9.81-19.11-26.99-44.84-39.09-77.74-37.79,0-3.45-.01-6.57,0-9.68.06-16.66.16-33.32.2-49.99q.03-14.46,14.09-17.29c.75-.15,1.36-1.03,2.03-1.57-.78-.59-1.55-1.66-2.34-1.68-6.33-.14-12.66-.09-19-.1-3.08,0-6.15,0-9.46,0,0,2.69,0,4.5,0,6.32.02,23.5-.06,46.99.17,70.49.05,4.61-1.09,6.8-5.82,8.45-38.39,13.36-61.38,52.87-54.3,92.66,6.88,38.69,38.95,66.86,78.43,68.9,38.48,1.98,73.55-23.23,83.88-60.68,1.95-7.06,2.53-14.49,3.75-21.82h-70.72v15.65h50.39c-4.32,27.23-34.31,50.32-63.92,49.92-34.05-.46-61.36-25.46-65.61-60.07-3.51-28.51,17.14-60.94,43.85-68.09v11.77c9.91,0,19.22.03,28.52-.06.74,0,1.47-.87,2.2-1.33-.8-.58-1.52-1.39-2.41-1.68-.91-.29-1.98-.04-2.98-.08-7.28-.27-10.91-4.5-10.3-12.72ZM38.9,450.19c2.47,0,4.61-.19,6.71.04,3.69.41,5.29-.76,5.62-4.76.51-6.12,1.81-12.17,2.78-18.25,2.37-15.02,4.75-30.03,7.31-46.27.92,2.01,1.36,2.86,1.71,3.75,8.38,21.18,16.71,42.37,25.17,63.51.67,1.69,2.14,3.05,3.24,4.57,1.22-1.56,2.87-2.94,3.6-4.71,8.43-20.44,16.71-40.93,25.04-61.41.57-1.41,1.24-2.78,2.43-5.44,3.48,23.9,6.73,46.23,10,68.71h11.93c-.24-1.91-.35-3.54-.65-5.15-5.19-28.31-10.38-56.62-15.7-84.91-.31-1.63-1.7-3.05-2.59-4.58-1.21,1.33-2.92,2.46-3.56,4.02-9.11,22.32-18.07,44.69-27.08,67.05-.62,1.54-1.38,3.01-2.35,5.12-1.07-2.53-1.8-4.2-2.49-5.88-9.03-21.99-18.01-44-27.16-65.94-.71-1.7-2.56-2.92-3.88-4.37-.94,1.71-2.33,3.31-2.74,5.14-1.46,6.49-2.58,13.05-3.84,19.59-4.46,23.18-8.93,46.36-13.51,70.16ZM723.75,358.1c0,19.78-.69,39.11.19,58.36.9,19.58,17.8,33.84,37.8,33.48,18.91-.34,34.73-15.75,35.25-35.15.49-18.14.2-36.31.23-54.46,0-.76-.34-1.52-.47-2.04h-10.7c0,18.08.02,35.72-.03,53.37,0,2.48,0,5.04-.6,7.42-3.17,12.67-15.6,21.29-28.12,19.71-12.79-1.62-22.38-12.52-22.5-25.77-.1-10.99-.02-21.99-.02-32.99,0-7.27,0-14.53,0-21.93h-11.03ZM256.53,449.61c-.57-1.46-1.01-2.69-1.54-3.89-12.66-28.76-25.31-57.53-38.03-86.26-.68-1.54-2.03-2.78-3.06-4.16-1.2,1.39-2.83,2.59-3.53,4.2-12.43,28.86-24.75,57.76-37.08,86.66-.49,1.15-.79,2.38-1.32,4.02,2.31,0,4.17-.23,5.94.05,4.3.68,6.57-.91,8.02-5.13,2.38-6.91,5.29-13.64,8.32-20.3.63-1.39,2.73-2.96,4.19-2.99,10.16-.26,20.33-.26,30.48,0,1.49.04,3.61,1.52,4.28,2.9,2.47,5.07,4.46,10.38,6.61,15.61q4.34,10.53,15.71,9.75c.16-.01.3-.13.99-.45ZM853.13,449.84h49.5v-9.83h-38.37v-35.24h38.35v-9.75h-38.26v-27.22h38.33v-9.47h-49.55v91.51ZM489.76,358.12v91.56h10.01v-91.56h-10.01ZM233.6,301.63c9.89,12.98,19.03,24.99,28.17,36.99.49-.25.98-.49,1.47-.74,0-12.11-.03-24.21.02-36.32.01-2.47-.37-5.33.73-7.29.92-1.64,3.71-2.23,5.98-3.45h-15.88c5.64.52,6.37,4.07,6.2,8.62-.19,5.32-.05,10.66-.05,15.99,0,2.99,0,5.97,0,8.96-.49.1-.97.2-1.46.29-7.33-10.09-14.81-20.09-21.92-30.33-2.38-3.44-4.93-4.41-8.68-3.15v46.69c1.96-.13,3.53-.24,5.41-.37v-35.89ZM277.75,291.14c0,10.33-.22,20.45.06,30.56.28,10.12,3.97,14.66,13.87,16.5,11.47,2.13,22.04-3.51,21.49-16.65-.26-6.32-.06-12.66-.04-18.99.02-4.92-1.43-10.63,6.1-11.56h-13.93c1.39,1.49,4.4,3.21,4.49,5.06.46,9.47.5,18.99.01,28.46-.26,4.93-3.3,8.71-8.33,10.18-4.84,1.41-9.11,1.43-13.08-3.01-3.57-3.99-4.66-8.21-4.62-13.19.07-9.1.02-18.2.02-27.36h-6.05ZM257.28,271.1c.35.56.69,1.13,1.04,1.69,1.89-1.2,5.17-2.15,5.44-3.64,1.29-7.19,4.92-10.93,12.37-10.65.82.03,1.65-.23,2.46-.16.62.05,1.56.25,1.76.67,1.05,2.25,2.42,4.53,2.67,6.9.21,1.92-1.01,3.99-1.53,5.74h12.76c-1.81-2.8-4.07-5.5-5.45-8.6-4.18-9.39-7.99-18.96-12.03-28.42-.65-1.52-1.72-2.85-3.45-5.65-5.72,15.02-10.89,28.56-16.05,42.11ZM427.16,290.76h-37.08v5.85h15.09v40.82h12.34c-6.05-2.13-6.24-2.37-6.25-9.02-.01-6.66,0-13.32,0-19.97,0-4.92,0-9.84,0-15.34,3.9.33,7.39-.21,10,1.07,2.54,1.25,4.17,4.34,6.7,7.19-.29-3.78-.53-7.02-.8-10.59ZM255.44,261.47c-.36-.3-.71-.6-1.07-.9-2.26,8.07-8.14,8.99-14.91,8.62-5.92-.32-7.38-1.64-7.38-7.73,0-10.08,0-20.16,0-30.64-2.15.13-3.68.22-5.18.3v40.78c8.01,0,15.77.06,23.53-.09.82-.02,2.03-1.09,2.36-1.94,1.06-2.73,1.79-5.59,2.65-8.4Z"/>
      <path class="cls-1" d="M905.53,58.31c-98.73,12.49-179.07,56.34-240.25,133.71-43.9,55.51-67.92,119.09-73.13,189.91,10.05-14.86,23.76-23.22,41.6-23.78,13.19-.42,24.78,4.14,34.56,13.15,18.11,16.68,22.99,47.83.25,71.83,5.97,5.33,11.99,10.69,18.42,16.43-13.6,5.49-19.67-3.26-26.16-10.38-29.43,15.59-56.89,2.62-68.29-17.32-6.03,22.38,20.09,109.33,46.43,154.05,28.21,47.9,65.67,87.04,112.29,117.32,46.39,30.13,97.23,48.03,153.02,54.49-9.16,3.09-47.33,2.42-79.5-1.73-26.12-3.37-51.4-10.41-76.69-20.1,0,11.42,0,22.19,0,32.97.04,32.99.08,65.98.12,98.97,0,7.9,6.75,14.13,14.35,13.27,3.77-.42,7.54-.86,12.31-1.41-2.42,4.16-4.14,7.72-6.42,10.88-2.45,3.39-2.63,6.38-.48,9.99,2.03,3.39,3.48,7.13,5.51,11.42-5.22-1.07-9.79-2.29-14.45-2.83-1.95-.22-4.61.44-5.99,1.72-3.37,3.13-6.17,6.86-9.21,10.34-.57-.38-1.15-.75-1.72-1.13-.4-4.38-.43-8.84-1.35-13.11-.48-2.22-2.07-4.71-3.92-6.03-3.7-2.64-7.92-4.57-12.55-7.13,5.04-2.23,9.4-3.83,13.4-6.07,1.74-.97,3.52-3.09,3.92-4.98.93-4.36,1.39-8.89,1.4-13.36.09-43.33.01-86.65.13-129.98.01-3.94-.97-5.94-4.91-7.72-113.02-51.18-184.45-137.07-207.66-259.01-36.49-191.72,88.65-369.2,272.21-408.46,32.61-6.97,65.6-9.08,98.86-6.43.97.08,1.93.26,3.88.52ZM660.7,434.59c14.71-13,16.32-36.03,3.91-51.22-13.12-16.07-36.08-19.09-52.32-6.89-16.58,12.46-20.47,35.18-8.92,52.02,11.01,16.05,33.26,21.69,48.69,12.01-6.38-6.63-12.72-13.2-19.26-19.99,8.6-1.91,15.37-.76,20.39,6.36,1.98,2.81,4.84,5.01,7.51,7.7Z"/>
      <path class="cls-1" d="M365.25,360.37c-.62,8.22,3.02,12.45,10.3,12.72,1,.04,2.07-.22,2.98.08.89.29,1.61,1.1,2.41,1.68-.73.46-1.46,1.32-2.2,1.33-9.3.09-18.61.06-28.52.06v-11.77c-26.71,7.15-47.35,39.58-43.85,68.09,4.26,34.6,31.57,59.61,65.61,60.07,29.62.4,59.61-22.69,63.92-49.92h-50.39v-15.65h70.72c-1.22,7.33-1.8,14.76-3.75,21.82-10.33,37.45-45.4,62.66-83.88,60.68-39.48-2.03-71.55-30.21-78.43-68.9-7.08-39.78,15.91-79.3,54.3-92.66,4.73-1.65,5.86-3.84,5.82-8.45-.23-23.49-.15-46.99-.17-70.49,0-1.82,0-3.63,0-6.32,3.31,0,6.39,0,9.46,0,6.33,0,12.67-.05,19,.1.79.02,1.56,1.09,2.34,1.68-.67.54-1.28,1.41-2.03,1.57q-14.07,2.83-14.09,17.29c-.04,16.66-.13,33.32-.2,49.99-.01,3.12,0,6.23,0,9.68,32.9-1.3,58.63,10.8,77.74,37.79-4.69,3.29-9.23,6.47-13.99,9.81-15.71-21.82-36.49-32.07-63.08-30.25Z"/>
      <path class="cls-1" d="M38.9,450.19c4.58-23.8,9.05-46.98,13.51-70.16,1.26-6.53,2.38-13.1,3.84-19.59.41-1.83,1.8-3.43,2.74-5.14,1.32,1.44,3.17,2.67,3.88,4.37,9.15,21.94,18.13,43.95,27.16,65.94.69,1.69,1.42,3.36,2.49,5.88.97-2.11,1.73-3.59,2.35-5.12,9.01-22.35,17.98-44.73,27.08-67.05.64-1.56,2.35-2.69,3.56-4.02.89,1.52,2.28,2.95,2.59,4.58,5.32,28.29,10.5,56.6,15.7,84.91.29,1.6.41,3.24.65,5.15h-11.93c-3.27-22.48-6.52-44.81-10-68.71-1.19,2.66-1.86,4.03-2.43,5.44-8.33,20.48-16.62,40.97-25.04,61.41-.73,1.76-2.38,3.15-3.6,4.71-1.1-1.51-2.57-2.88-3.24-4.57-8.45-21.15-16.79-42.34-25.17-63.51-.35-.89-.79-1.74-1.71-3.75-2.57,16.23-4.94,31.25-7.31,46.27-.96,6.08-2.26,12.13-2.78,18.25-.34,4-1.94,5.17-5.62,4.76-2.1-.23-4.24-.04-6.71-.04Z"/>
      <path class="cls-1" d="M723.75,358.1h11.03c0,7.4,0,14.66,0,21.93,0,11-.08,21.99.02,32.99.12,13.25,9.71,24.15,22.5,25.77,12.52,1.59,24.94-7.04,28.12-19.71.6-2.38.6-4.94.6-7.42.05-17.65.03-35.29.03-53.37h10.7c.13.52.47,1.28.47,2.04-.02,18.15.26,36.32-.23,54.46-.52,19.4-16.34,34.81-35.25,35.15-20,.36-36.91-13.91-37.8-33.48-.88-19.25-.19-38.57-.19-58.36Z"/>
      <path class="cls-1" d="M256.53,449.61c-.69.32-.84.44-.99.45q-11.38.78-15.71-9.75c-2.15-5.23-4.14-10.53-6.61-15.61-.67-1.38-2.79-2.86-4.28-2.9-10.16-.25-20.33-.25-30.48,0-1.46.04-3.56,1.6-4.19,2.99-3.03,6.65-5.94,13.39-8.32,20.3-1.45,4.22-3.72,5.81-8.02,5.13-1.77-.28-3.63-.05-5.94-.05.53-1.64.83-2.87,1.32-4.02,12.33-28.9,24.65-57.81,37.08-86.66.69-1.61,2.33-2.81,3.53-4.2,1.04,1.38,2.38,2.62,3.06,4.16,12.73,28.73,25.38,57.5,38.03,86.26.53,1.19.96,2.43,1.54,3.89ZM228.41,412.91c-5.11-13.14-9.95-25.57-15.28-39.27-5.16,13.75-9.88,26.31-14.74,39.27h30.02Z"/>
      <path class="cls-1" d="M853.13,449.84v-91.51h49.55v9.47h-38.33v27.22h38.26v9.75h-38.35v35.24h38.37v9.83h-49.5Z"/>
      <path class="cls-1" d="M489.76,358.12h10.01v91.56h-10.01v-91.56Z"/>
      <path class="cls-1" d="M233.6,301.63v35.89c-1.88.13-3.45.24-5.41.37v-46.69c3.75-1.26,6.3-.29,8.68,3.15,7.11,10.25,14.59,20.24,21.92,30.33.49-.1.97-.2,1.46-.29,0-2.99,0-5.97,0-8.96,0-5.33-.15-10.67.05-15.99.16-4.54-.57-8.09-6.2-8.62h15.88c-2.26,1.22-5.06,1.81-5.98,3.45-1.09,1.96-.72,4.82-.73,7.29-.05,12.11-.02,24.21-.02,36.32-.49.25-.98.49-1.47.74-9.14-12-18.28-24.01-28.17-36.99Z"/>
      <path class="cls-1" d="M277.75,291.14h6.05c0,9.17.05,18.26-.02,27.36-.04,4.99,1.06,9.21,4.62,13.19,3.96,4.43,8.24,4.41,13.08,3.01,5.03-1.46,8.07-5.25,8.33-10.18.49-9.47.45-18.99-.01-28.46-.09-1.86-3.1-3.57-4.49-5.06h13.93c-7.53.93-6.08,6.64-6.1,11.56-.02,6.33-.22,12.67.04,18.99.54,13.14-10.02,18.78-21.49,16.65-9.9-1.84-13.59-6.38-13.87-16.5-.28-10.11-.06-20.22-.06-30.56Z"/>
      <path class="cls-1" d="M257.28,271.1c5.16-13.54,10.32-27.09,16.05-42.11,1.73,2.8,2.8,4.13,3.45,5.65,4.04,9.46,7.85,19.02,12.03,28.42,1.38,3.09,3.64,5.8,5.45,8.6h-12.76c.51-1.75,1.73-3.82,1.53-5.74-.25-2.38-1.62-4.66-2.67-6.9-.19-.42-1.14-.62-1.76-.67-.81-.07-1.64.19-2.46.16-7.45-.28-11.08,3.46-12.37,10.65-.27,1.49-3.55,2.44-5.44,3.64-.35-.56-.69-1.13-1.04-1.69ZM269.16,254.48c3.53.56,6.54,1.04,10.29,1.63-1.99-4.75-3.7-8.85-5.8-13.86-1.72,4.7-3.03,8.26-4.49,12.23Z"/>
      <path class="cls-1" d="M427.16,290.76c.27,3.57.51,6.81.8,10.59-2.53-2.85-4.16-5.95-6.7-7.19-2.61-1.28-6.1-.75-10-1.07,0,5.5,0,10.42,0,15.34,0,6.66,0,13.32,0,19.97.01,6.65.2,6.89,6.25,9.02h-12.34v-40.82h-15.09v-5.85h37.08Z"/>
      <path class="cls-1" d="M255.44,261.47c-.86,2.81-1.59,5.67-2.65,8.4-.33.85-1.54,1.92-2.36,1.94-7.76.15-15.52.09-23.53.09v-40.78c1.49-.09,3.02-.18,5.18-.3,0,10.48,0,20.56,0,30.64,0,6.09,1.47,7.41,7.38,7.73,6.77.37,12.65-.55,14.91-8.62.36.3.71.6,1.07.9Z"/>
      <path class="cls-2" d="M660.7,434.59c-2.67-2.7-5.53-4.89-7.51-7.7-5.02-7.12-11.78-8.27-20.39-6.36,6.55,6.8,12.88,13.37,19.26,19.99-15.43,9.67-37.69,4.04-48.69-12.01-11.55-16.84-7.65-39.57,8.92-52.02,16.24-12.2,39.2-9.18,52.32,6.89,12.41,15.19,10.79,38.22-3.91,51.22Z"/>
      <path class="cls-2" d="M228.41,412.91h-30.02c4.87-12.96,9.58-25.52,14.74-39.27,5.33,13.71,10.17,26.13,15.28,39.27Z"/>
      <path class="cls-2" d="M269.16,254.48c1.46-3.97,2.76-7.53,4.49-12.23,2.1,5.01,3.81,9.11,5.8,13.86-3.75-.59-6.75-1.07-10.29-1.63Z"/>
    </g>
  </g>
</svg>